<svg xmlns="http://www.w3.org/2000/svg" viewBox="0 0 53.86 40.68"><title>check</title><g id="Layer_2" data-name="Layer 2"><g id="Layer_1-2" data-name="Layer 1"><path d="M16,40.68a2.22,2.22,0,0,1-1.61-.83Q7.71,33.22,1.08,26.58C-.43,25.06-.37,24.63,1.34,23c1.32-1.29,1.75-1.28,3.19.16,3.51,3.5,7,7,10.5,10.54.75.76,1.11.7,1.83,0Q33,17.38,49.29,1.18C49.9.57,50.44-.3,51.49.1A4.12,4.12,0,0,1,53.8,2.57a1,1,0,0,1-.27,1,6.45,6.45,0,0,1-.75.82Q35.14,22.07,17.49,39.7c-.45.45-.81,1.06-1.53,1"/></g></g></svg>