<svg xmlns="http://www.w3.org/2000/svg" viewBox="0 0 60.89 47.35"><title>credit-card</title><g id="Layer_2" data-name="Layer 2"><g id="Layer_1-2" data-name="Layer 1"><path d="M60.86,5.05a5,5,0,0,0-5.1-5H5.15A5,5,0,0,0,0,5.23v36.6c0,3.49,2.06,5.52,5.58,5.52h50a5.06,5.06,0,0,0,5.28-5q.06-18.66,0-37.32M57.5,41.79c0,1.59-.59,2.18-2.18,2.18H5.58c-1.6,0-2.19-.58-2.19-2.16,0-6.76,0-13.52,0-20.28,0-1,.31-1.26,1.29-1.26,8.62,0,17.23,0,25.84,0s17.06,0,25.59,0c1.2,0,1.45.34,1.44,1.48-.05,6.68,0,13.36,0,20M56,10.17c-8.53,0-17.06,0-25.59,0H5.09c-1.94,0-1.69.22-1.7-1.77,0-.92,0-1.85,0-2.77C3.39,4,4,3.39,5.63,3.39H55.24c1.68,0,2.25.57,2.26,2.22a29.88,29.88,0,0,0,0,3.14c.13,1.22-.38,1.43-1.49,1.42"/><path d="M32.09,37.21H25.45c-1.31,0-1.78-.46-1.77-1.69s.46-1.68,1.79-1.68H38.86c1.28,0,1.75.5,1.73,1.76s-.5,1.61-1.75,1.61H32.09"/><path d="M15.34,33.82c1.13,0,2.25,0,3.38,0s1.56.53,1.57,1.66-.43,1.7-1.52,1.71q-3.56,0-7.11,0c-1.08,0-1.52-.55-1.51-1.72s.46-1.63,1.58-1.65,2.41,0,3.61,0"/></g></g></svg>