<svg xmlns="http://www.w3.org/2000/svg" viewBox="0 0 57.32 51.02"><title>shopping-cart</title><g id="Layer_2" data-name="Layer 2"><g id="Layer_1-2" data-name="Layer 1"><path style="fill:#E9F3E1;" d="M53.91,6.38H13.48c-.45,0-.66-.14-.74-.63-.17-1.12-.42-2.22-.64-3.33C11.76.69,11,0,9.22,0H1.71C.44,0,0,.42,0,1.58s.43,1.6,1.67,1.61c2.05,0,4.1.08,6.15,0,1.08-.06,1.35.43,1.5,1.3.54,3.05,1.08,6.1,1.65,9.15Q13.34,26.32,15.76,39a3.1,3.1,0,0,1-.46,2.43,6.23,6.23,0,0,0,2.08,8.62,6.38,6.38,0,0,0,8.91-8.53H40.55c.09.33-.11.54-.21.78a6.35,6.35,0,1,0,12.08.91,13.52,13.52,0,0,0-1.75-3.27,3,3,0,0,0-3-1.69c-9.07,0-18.14,0-27.22,0-.3,0-.61,0-.91,0-.51,0-.74-.22-.81-.73-.22-1.38-.48-2.75-.72-4.13s-.25-1.52,1.29-1.52H50.35A2.52,2.52,0,0,0,53.05,30c1.38-6.59,2.77-13.17,4.11-19.76.57-2.82-.31-3.81-3.25-3.81M46.27,41.46a3.19,3.19,0,1,1-3.22,3.15,3.26,3.26,0,0,1,3.22-3.15m-25.62,0a3.19,3.19,0,1,1-3.11,3.26,3.25,3.25,0,0,1,3.11-3.26M53.81,10.78c-1.21,5.54-2.35,11.09-3.46,16.64-.2,1-.56,1.32-1.62,1.31q-15.13-.07-30.27,0c-1.07,0-1.48-.25-1.68-1.38-1-5.54-2-11.06-3.12-16.58-.2-1,.06-1.23,1.08-1.22,6.33,0,12.66,0,19,0s12.74,0,19.12,0c1,0,1.16.24,1,1.23"/></g></g></svg>
