<svg xmlns="http://www.w3.org/2000/svg" viewBox="0 0 52.19 52.24"><title>plane</title><g id="Layer_2" data-name="Layer 2"><g id="Layer_1-2" data-name="Layer 1"><path d="M50.83.62A3.24,3.24,0,0,0,47,.63C43.36,2.76,39.69,4.87,36,7L15.36,18.9Q8.5,22.85,1.66,26.81a3.2,3.2,0,0,0,.23,5.73,9.18,9.18,0,0,0,1,.44c4.22,1.76,8.44,3.52,12.68,5.24a1.09,1.09,0,0,1,.82,1.2c0,1.55,0,3.11,0,4.66s0,3.27,0,4.9a3.1,3.1,0,0,0,2.05,3A2.89,2.89,0,0,0,22,51.13c1.65-2,3.28-3.93,4.92-5.89,1.79-2.16.91-1.93,3.52-.89,3.49,1.4,6.93,2.93,10.42,4.33,2.54,1,4.51-.19,4.9-2.85.53-3.71,1.1-7.42,1.67-11.12.83-5.35,1.68-10.7,2.5-16,.74-4.77,1.41-9.56,2.2-14.33A3.47,3.47,0,0,0,50.83.62m-26,42c-1.65,2-3.33,4-5.18,6.26V40c1.71.69,3.28,1.35,4.85,2,.34.14.61.32.33.67M47.75,11.44c-.75,4.89-1.52,9.78-2.28,14.66L43,42.15c-.13.88-.21,1.76-.33,2.65-.09.7-.32,1-1.14.67q-9.55-4-19.13-7.92c-.9-.36-.89-.57-.28-1.28,4.06-4.74,8-9.54,12.08-14.31,2.32-2.75,4.67-5.49,7-8.23.1-.12.22-.22.32-.34.28-.35.57-.74.15-1.12s-.78-.06-1.12.23L36,16.34l-15.24,13c-1.77,1.51-3.54,3-5.29,4.55a1.13,1.13,0,0,1-1.35.26c-3.5-1.47-7-2.91-10.88-4.5L49,3.25c-.42,2.85-.81,5.52-1.22,8.19"/></g></g></svg>