<svg xmlns="http://www.w3.org/2000/svg" viewBox="0 0 79.1 51.02"><title>sale-tag</title><g id="Layer_2" data-name="Layer 2"><g id="Layer_1-2" data-name="Layer 1"><path d="M28,3.58C28.65.88,29.87-.1,32.61,0,37,.19,41.37.35,45.74.65a8.72,8.72,0,0,1,5.63,2.61Q64.62,16.45,77.81,29.69a4.06,4.06,0,0,1,0,5.95q-7,7.06-14.11,14.11a4.06,4.06,0,0,1-5.94,0Q44.58,36.55,31.43,23.38A9.35,9.35,0,0,1,28.67,17c-.17-3.56-.35-7.12-.47-10.68,0-.7-.3-.91-.92-1a8,8,0,0,0-6.84,3c-.71.82-1.29,1.73-2,2.58a13.13,13.13,0,0,1-6.64,4.78c-4,1.12-7.23-.32-9.95-3.23A17.67,17.67,0,0,1,.42,10.62C-.13,9.87-.14,9.27.4,9c.69-.38,1.07.06,1.49.58a20.65,20.65,0,0,0,2.72,2.95,7.19,7.19,0,0,0,8.56.7,14.47,14.47,0,0,0,4.58-4.3,20.64,20.64,0,0,1,2.64-3A8.84,8.84,0,0,1,27.17,3.6l.56,0a2.33,2.33,0,0,0,.27,0M30.13,5.9c0,.92,0,1.58,0,2.23.13,2.91.28,5.8.41,8.7a7.74,7.74,0,0,0,2.26,5.26q13.05,13.1,26.14,26.16a2.3,2.3,0,0,0,3.61,0L76.32,34.45a2.25,2.25,0,0,0,0-3.59Q63.24,17.78,50.16,4.72A7.67,7.67,0,0,0,45,2.47l-4.59-.22c-2.76-.13-5.53-.27-8.3-.38A1.9,1.9,0,0,0,30,3.25c-.17.52-.08.79.48,1A37.12,37.12,0,0,1,34,5.85a1.3,1.3,0,0,0,1.42,0,3.47,3.47,0,0,1,4,.37,3.56,3.56,0,0,1,1.32,3.81,3.7,3.7,0,0,1-4.42,2.75,3.75,3.75,0,0,1-2.87-4.43c0-.26,0-.72-.13-.81-1-.58-2.07-1.09-3.23-1.68m5.23,3A1.83,1.83,0,1,0,38.53,8a1.46,1.46,0,0,0-1.86-.41c.36.32.73.62,1.06,1a.84.84,0,0,1,.08,1.26.83.83,0,0,1-1.26.08L35.36,8.9"/><path d="M65.21,32l-1.72,1.74,2.27,2.18c.19.19.38.37.56.57s.45.75,0,1a1,1,0,0,1-.94-.1C64.67,36.72,64,36,63.32,35.3a8.54,8.54,0,0,1-.59-.79l-1.95,2.16c.75.73,1.62,1.6,2.49,2.46.17.17.34.33.5.51.33.34.47.72.07,1.1s-.74.2-1-.11q-1.86-1.83-3.7-3.69a.93.93,0,0,1,0-1.46l5-5a.93.93,0,0,1,1.46,0q1.77,1.75,3.53,3.52c.31.32.56.69.15,1.1s-.82.16-1.16-.18L65.21,32"/><path d="M41,17.49a4.78,4.78,0,0,1,.49-1.31,1.2,1.2,0,0,1,1-.36c.19,0,.31.62.36,1s-.14.44-.21.66a2.18,2.18,0,0,0,1.94,2.69,1.13,1.13,0,0,0,1.21-1.54,10.81,10.81,0,0,0-.69-1.41,12.55,12.55,0,0,1-.89-1.85,2.29,2.29,0,0,1,2.58-3A4.56,4.56,0,0,1,50.24,16a2.84,2.84,0,0,1-.16,1.08.87.87,0,0,1-1.17.64c-.58-.19-.53-.7-.38-1.12a1.92,1.92,0,0,0-.79-2.41A1.23,1.23,0,0,0,46.2,14c-.56.42-.39,1-.13,1.5.38.75.84,1.46,1.22,2.21A2.52,2.52,0,0,1,46.86,21a2.8,2.8,0,0,1-3.45.22A4.58,4.58,0,0,1,41,17.49"/><path d="M55.74,21.05c-.05.14-.12.43-.23.69-.93,2.21-1.87,4.42-2.8,6.62-.08.17-.16.34-.25.5a.85.85,0,0,1-1.55-.69,7.55,7.55,0,0,1,.52-1.24.69.69,0,0,0-.15-1c-.68-.63-1.3-1.33-2-1.94a1,1,0,0,0-.8-.14,9.44,9.44,0,0,0-1.23.52c-.51.21-.95.17-1.19-.39s.06-.93.52-1.15c.91-.42,1.84-.8,2.76-1.2,1.47-.64,2.93-1.31,4.42-1.91a1.31,1.31,0,0,1,2,1.29m-1.8.47-.13-.16L50.38,23l1.9,2.08,1.66-3.54"/><path d="M55,30.8l2.75,2.68c.38.38.69.82.2,1.29s-.87.11-1.22-.24c-1-1-2-2-3-3-.62-.63-.64-1.07,0-1.69,1.65-1.67,3.32-3.32,5-5,.43-.43.92-.68,1.44-.16s.23,1-.19,1.44L55.78,30.2a8.8,8.8,0,0,1-.83.6"/></g></g></svg>